# xmcd
#
# Track frame offsets: 
#        150
#        81535
#        125160
#        176802
#
# Disc length: 3756 seconds
#
# Revision: 1
# Processed by: cddbd v1.5.2PL0 Copyright (c) Steve Scherf et al.
# Submitted via: ExactAudioCopyFreeDBPlugin 1.0
#
DISCID=380eaa04
DTITLE=Cornelia Funke - Drachenreiter - Die Feder eines Greifs
DYEAR=2016
DGENRE=Hörbuch
TTITLE0=Die größte Aufgabe für die Kleinsten
TTITLE1=Die andere Mission
TTITLE2=Nie gehört
TTITLE3=Die Herausforderung
EXTD=
EXTT0=
EXTT1=
EXTT2=
EXTT3=
PLAYORDER=
